# xmcd CD database file
#
# Track frame offsets:
#	150
#	15249
#	28097
#	41330
#	56636
#	70459
#	86171
#	100278
#	113572
#	126219
#	141737
#	152969
#	171864
#	183597
#	193188
#	208399
#
# Disc length: 2998 seconds
#
# Revision: 0
# Processed by: cddbd v1.5.2PL0 Copyright (c) Steve Scherf et al.
# Submitted via: CDex 1.51
#
DISCID=f00bb410
DTITLE=Ken Colyer's jazzmen and Chris Barber's Jazz Band - New orleans To London and New Orleans Joys
DYEAR=2007
DGENRE=Jazz
TTITLE0=Goin' Home
TTITLE1=Isle Of Capri
TTITLE2=Harlem Rag
TTITLE3=La Harpe Street
TTITLE4=Stockyard Strut
TTITLE5=Cataract Rag
TTITLE6=Early Hours
TTITLE7=Too Busy
TTITLE8=Bobby Shaftoe
TTITLE9=Chimes Blues
TTITLE10=Rock Island Line
TTITLE11=The Martinique
TTITLE12=New Orleans Blues
TTITLE13=John Henry
TTITLE14=Merrydown Rag
TTITLE15=Stevedore Stomp
EXTD=YEAR: 2007
EXTT0=
EXTT1=
EXTT2=
EXTT3=
EXTT4=
EXTT5=
EXTT6=
EXTT7=
EXTT8=
EXTT9=
EXTT10=
EXTT11=
EXTT12=
EXTT13=
EXTT14=
EXTT15=
PLAYORDER=
